# xmcd CD database file
#
# Track frame offsets:
#	150
#	6219
#	19845
#	35965
#	50389
#	64197
#	93727
#	123183
#	133855
#	145342
#	165491
#
# Disc length: 2426 seconds
#
# Revision: 0
# Processed by: cddbd v1.5.2PL0 Copyright (c) Steve Scherf et al.
# Submitted via: CDex 1.70beta2
#
DISCID=9b09780b
DTITLE=Build An Ark - Dawn
DYEAR=2007
DGENRE=Jazz
TTITLE0=Sunshine
TTITLE1=Healing Song
TTITLE2=Love, Sweet Like Sugar Cane
TTITLE3=Dawn
TTITLE4=River Run
TTITLE5=When Ancestors Speak
TTITLE6=Morning Glory
TTITLE7=In Her Smile
TTITLE8="You yourself are the key to the universe."
TTITLE9=Heaven
TTITLE10=What The World Needs Now Is Love
EXTD=YEAR: 2007
EXTT0=
EXTT1=
EXTT2=
EXTT3=
EXTT4=
EXTT5=
EXTT6=
EXTT7=
EXTT8=
EXTT9=
EXTT10=
PLAYORDER=
